<svg width="512" height="512" viewBox="232 113 512 512" xmlns="http://www.w3.org/2000/svg" xmlns:usvg="https://github.com/RazrFalcon/usvg" usvg:version="0.8.0">
    <defs>
        <clipPath id="clip-image-0">
            <path d="M 0 0 L 1024 0 L 1024 1024 L 0 1024 Z"/>
        </clipPath>
        <clipPath id="clipPath1">
            <path d="M 0 0 L 1024 0 L 1024 1024 L 0 1024 Z"/>
        </clipPath>
    </defs>
    <g clip-path="url(#clip-image-0)" transform="matrix(0.5 0 0 0.5 232 113)">
        <g clip-path="url(#clipPath1)">
            <path fill="#0c0d0e" transform="matrix(0.5 0 0 0.5 0 0)" d="M 1027.96 14.1761 C 1086.89 15.414 1145.88 14.9432 1204.83 14.9015 C 1285.82 14.8443 1366.81 14.8906 1447.81 14.7956 C 1490.42 14.7457 1533.04 14.9241 1575.65 15.0149 C 1598.71 15.0641 1621.76 15.0834 1644.81 15.4856 C 1656.53 15.69 1668.61 15.4429 1680.27 16.6001 C 1700.16 18.5734 1720.58 22.7486 1739.96 27.684 C 1802.52 43.6146 1863.63 79.9252 1908.35 126.484 C 1962.41 182.777 2002.03 259.442 2015.87 336.5 C 2018.61 351.751 2021.93 367.526 2023.27 382.949 C 2025.08 403.756 2024.23 425.154 2024.18 446.044 C 2024.09 479.727 2023.96 513.41 2023.93 547.093 C 2023.86 638.689 2023.95 730.285 2023.91 821.881 C 2023.85 1005.8 2023.9 1189.72 2023.95 1373.64 C 2023.97 1432.69 2023.99 1491.75 2024.05 1550.8 C 2024.09 1582.41 2024.76 1614.12 2024.05 1645.72 C 2023.55 1667.99 2020.29 1690.66 2015.98 1712.5 C 2012.21 1731.54 2008.14 1750.67 2002.03 1769.13 C 1980.8 1833.21 1943.02 1889.9 1894.31 1936.28 C 1865.12 1964.07 1831.39 1985.88 1794.5 2002.01 C 1781.48 2007.7 1766.83 2013.74 1752.91 2016.68 C 1737.38 2019.96 1722.51 2024.86 1706.64 2026.9 C 1672.04 2031.34 1636.49 2030.32 1601.67 2030.26 C 1557.71 2030.19 1513.76 2030.08 1469.81 2030.06 C 1370.1 2030.01 1270.39 2030.03 1170.68 2030.06 C 1122.54 2030.07 1074.23 2029.02 1026.12 2030 L 1028.66 1774.21 C 1033.12 1760.76 1047.89 1747.03 1057.45 1736.68 C 1101.49 1688.92 1149.36 1645.04 1194.56 1598.43 C 1275.38 1515.12 1357.67 1433.39 1439.47 1351.07 C 1502.61 1287.53 1564.99 1223.3 1628.7 1160.33 C 1676.58 1113.01 1719.59 1057.39 1748.36 996.295 C 1781.39 926.132 1795.5 847.598 1795.8 770.366 C 1796.24 655.938 1752.26 538.194 1671.01 456.605 C 1603.85 389.158 1509.56 347.165 1413.94 347.139 C 1337.5 347.118 1262.05 367.917 1197.04 408.454 C 1166.99 427.188 1137.75 451.62 1112.78 476.63 C 1093.78 495.653 1075.62 515.303 1057.92 535.545 C 1047.5 547.455 1036.27 559.678 1027.93 573.118 C 1025.67 568.623 1026.67 558.743 1026.64 553.555 C 1026.03 440.631 1027.3 327.658 1026.99 214.723 C 1026.87 171.301 1026.69 127.881 1026.83 84.4592 C 1026.91 61.2561 1025.86 37.2739 1027.96 14.1761 Z"/>
            <path fill="#871b30" transform="matrix(0.5 0 0 0.5 0 0)" d="M 1026.12 2030 L 414.828 2030.43 C 391.318 2030.39 367.825 2029.93 344.5 2026.69 C 269.611 2016.27 197.25 1981.75 143.783 1927.86 C 85.9265 1869.54 49.5413 1795.81 33.2951 1715.63 C 18.8465 1644.33 23.0088 1570.98 22.9521 1498.6 C 22.8894 1418.59 22.6242 1338.58 22.7187 1258.56 C 23.0425 984.374 21.5251 710.126 22.967 435.946 C 23.055 419.216 22.9151 402.001 24.4939 385.36 C 33.9399 285.794 74.4203 191.194 145.939 120.577 C 196.315 70.8366 260.495 37.6915 329.481 22.4329 C 375.712 12.2071 423.475 14.8675 470.542 14.8654 C 518.195 14.8632 565.844 14.7145 613.498 14.7623 C 751.632 14.9006 889.832 13.2207 1027.96 14.1761 C 1025.86 37.2739 1026.91 61.2561 1026.83 84.4592 C 1026.69 127.881 1026.87 171.301 1026.99 214.723 C 1027.3 327.658 1026.03 440.631 1026.64 553.555 C 1026.67 558.743 1025.67 568.623 1027.93 573.118 L 1026.5 576.218 C 1021.75 571.183 1018.21 565.12 1013.67 559.868 C 993.476 536.52 973.513 512.279 952.445 489.778 C 911.961 446.541 860.685 406.266 806.847 381.297 C 760.848 359.964 711.169 348.732 660.571 347.185 C 635.762 346.427 610.289 347.341 585.764 351.43 C 512.125 363.705 442.946 399.912 388.702 450.869 C 373.284 465.353 358.436 480.623 345.52 497.407 C 289.785 569.837 260.566 663.676 258.109 754.58 C 256.416 817.229 264.558 883.363 284.095 943.038 C 308.764 1018.39 351.425 1086.67 405.968 1143.93 L 1028.66 1774.21 L 1026.12 2030 Z"/>
            <path fill="#fe5a22" transform="matrix(0.5 0 0 0.5 0 0)" d="M 1028.66 1774.21 L 405.968 1143.93 C 351.425 1086.67 308.764 1018.39 284.095 943.038 C 264.558 883.363 256.416 817.229 258.109 754.58 C 260.566 663.676 289.785 569.837 345.52 497.407 C 358.436 480.623 373.284 465.353 388.702 450.869 C 442.946 399.912 512.125 363.705 585.764 351.43 C 610.289 347.341 635.762 346.427 660.571 347.185 C 711.169 348.732 760.848 359.964 806.847 381.297 C 860.685 406.266 911.961 446.541 952.445 489.778 C 973.513 512.279 993.476 536.52 1013.67 559.868 C 1018.21 565.12 1021.75 571.183 1026.5 576.218 L 1027.93 573.118 C 1036.27 559.678 1047.5 547.455 1057.92 535.545 C 1075.62 515.303 1093.78 495.653 1112.78 476.63 C 1137.75 451.62 1166.99 427.188 1197.04 408.454 C 1262.05 367.917 1337.5 347.118 1413.94 347.139 C 1509.56 347.165 1603.85 389.158 1671.01 456.605 C 1752.26 538.194 1796.24 655.938 1795.8 770.366 C 1795.5 847.598 1781.39 926.132 1748.36 996.295 C 1719.59 1057.39 1676.58 1113.01 1628.7 1160.33 C 1564.99 1223.3 1502.61 1287.53 1439.47 1351.07 C 1357.67 1433.39 1275.38 1515.12 1194.56 1598.43 C 1149.36 1645.04 1101.49 1688.92 1057.45 1736.68 C 1047.89 1747.03 1033.12 1760.76 1028.66 1774.21 Z"/>
        </g>
    </g>
</svg>
